<svg xmlns="http://www.w3.org/2000/svg" viewBox="0 0 170 50"><path fill="#FFDF1C" d="M49.91 26.56L37.7 14.22l5.55-5.55-16.62-.05V0L14.36 12.22 9.02 6.87l-.03 16.82H0l12.08 12.16-6.24 6.34h17.8l.05 7.81 11.77-11.73 6 6.08.03-17.79h8.42zm-20.54 5.06c-2.08 1.52-5.35 1.82-7.7.63-3.04-1.59-4.26-4.92-3.9-8.09.3-2.18 1.72-4.03 3.57-5.19 2.08-1.19 5.05-1.26 7.23-.2 2.41 1.29 4.1 3.87 4.06 6.71-.12 2.44-1.01 4.75-3.26 6.14z"/><path d="M70.74 32.77h-8.11c-2.34 0-4.16-.98-4.16-3.58v-3.06h7.29v1.32c0 .83.3 1.25.92 1.25.6 0 .9-.83.92-1.52.03-.78-.37-1.45-1.12-1.74l-5.35-2.13c-1.34-.54-2.66-1.4-2.66-3.23v-2.03c0-2.6 1.82-3.6 4.16-3.6h8.11c2.34 0 4.16 1 4.16 3.6v1.93h-7.3v-.2c0-.73-.35-1.25-.92-1.25-.5 0-.92.42-.92.91 0 .54.42.83.92 1.05l6.1 2.52c1.49.64 2.12 1.93 2.12 3.58v2.6c0 2.6-1.82 3.58-4.16 3.58zM87.99 32.77H80.1c-2.34 0-4.16-.98-4.16-3.58V14.57h7.19v12.88c0 .83.27 1.25.9 1.25s.92-.39.92-1.25V14.57h7.17V29.2c0 2.59-1.79 3.57-4.13 3.57zM103.74 32.65l-3.16-8.5v8.5h-6.55V14.57h7.09l2.84 7.45v-7.45h6.52v18.08h-6.74zM124.02 32.65h-12.07V14.57h12.07c2.74 0 4.23 1.25 4.23 4.34 0 1.86-.6 3.58-2.99 4.07 2.29.54 2.99 2.23 2.99 5.05 0 3.47-1.49 4.62-4.23 4.62zm-4.03-13.96h-.85v2.57h.85c.67 0 .97-.37.97-1.27 0-.96-.3-1.3-.97-1.3zm.97 7.69c0-.78-.3-1.2-.97-1.2h-.85v3.36h.85c.67 0 .97-.42.97-1.18v-.98zM129.71 32.65V14.57h11.6v4.11h-4.41v1.98h4.41v4.11h-4.41v3.75h4.41v4.11h-11.6zM143.15 32.65V14.57h7.19v13.96h4.41v4.11h-11.6zM163.49 18.69v13.96h-7.17V18.69h-3.71v-4.11h14.56v4.11h-3.68z"/><g fill-rule="evenodd" clip-rule="evenodd"><path d="M75.88 36.61h3.1c.63 0 .91.11.91.68v.21c0 .47-.2.68-.73.68h-3.28v-1.57zm-1.99 4.87h1.99V39.8H79c.62 0 .81.22.81.9v.78h1.99v-1.1c0-1.06-.49-1.32-1.08-1.43v-.02c.91-.22 1.11-.72 1.11-1.59v-.41c0-1.16-.41-1.92-1.94-1.92H73.9v6.47zM85.96 41.48h7.2v-1.56h-5.21v-1.04h4.83v-1.34h-4.83V36.5h5.1V35h-7.09zM97.16 41.48h1.98v-4.71h.02l3.73 4.71h3.08V35h-1.99v4.71h-.02L100.23 35h-3.07zM109.63 36.61h2.79v4.87h1.99v-4.87h2.79V35h-7.57zM119.56 41.48h2.22l.58-1.15h4.03l.62 1.15h2.21L125.65 35h-2.58l-3.51 6.48zm4.8-4.98l1.29 2.43h-2.54l1.25-2.43zM132.72 41.48h6.45v-1.67h-4.47V35h-1.98zM142.68 39.8c0 1.4.73 1.74 2.53 1.74h2.41c2.64 0 3.23-.29 3.23-2.03 0-1.89-.72-2.08-3.8-2.07-2.13.01-2.37-.01-2.37-.57 0-.35.3-.5.75-.5h2.2c.91 0 .97.2.97.67h1.99v-.21c0-1.14-.21-1.91-2.5-1.91h-2.77c-2.5 0-2.61.9-2.61 2.08 0 1.59.34 1.95 3.33 1.95 2.56 0 2.79.04 2.79.6 0 .5-.43.54-.85.54h-2.43c-.57 0-.85-.05-.86-.74h-1.99v.45z"/></g><path d="M167.33 27.9c1.41 0 2.53 1.15 2.53 2.58 0 1.45-1.12 2.59-2.54 2.59-1.41 0-2.56-1.13-2.56-2.59.01-1.43 1.15-2.58 2.57-2.58zm-.01.41c-1.14 0-2.06.97-2.06 2.18 0 1.23.93 2.19 2.07 2.19 1.15.01 2.06-.96 2.06-2.18.01-1.22-.91-2.19-2.07-2.19zm-.48 3.67h-.46V29.1c.24-.03.47-.07.81-.07.44 0 .72.09.89.22.17.13.26.32.26.6 0 .38-.25.61-.56.7v.02c.25.05.42.28.48.7.07.45.14.62.18.71h-.48c-.07-.09-.14-.36-.19-.73-.07-.37-.25-.5-.62-.5h-.32v1.23zm0-1.59h.33c.38 0 .7-.14.7-.49 0-.25-.18-.5-.7-.5-.15 0-.25.01-.33.02v.97z"/></svg>