<?xml version="1.0" encoding="UTF-8" standalone="no"?>
<!-- Created with Inkscape (http://www.inkscape.org/) -->
<svg
   xmlns:svg="http://www.w3.org/2000/svg"
   xmlns="http://www.w3.org/2000/svg"
   version="1.0"
   width="814.96063"
   height="200.55118"
   id="svg3633">
  <defs
     id="defs3635" />
  <g
     transform="translate(-591.77638,-554.25544)"
     id="layer1">
    <g
       transform="translate(17.716556,17.685979)"
       id="g21183">
      <path
         d="M 1371.0281,590.08479 L 1348.614,590.08479 C 1347.013,581.14125 1339.3945,576.1726 1331.1132,576.11739 C 1322.6117,576.00698 1313.668,582.30061 1313.668,594.33572 C 1313.668,604.43859 1323.4947,611.28423 1331.7209,611.28423 C 1337.0759,611.28423 1346.6264,606.92289 1346.6264,599.85638 C 1346.6264,594.77737 1337.7383,595.21901 1337.1311,595.21901 L 1323.6606,594.61175 L 1323.6606,594.00449 L 1371.3039,594.00449 L 1371.3039,596.10235 C 1369.8688,618.79238 1349.3871,634.69198 1329.9539,633.25659 C 1293.6279,630.10982 1291.8613,596.5992 1291.8613,593.72841 C 1292.0269,572.2529 1309.0305,554.25544 1331.8312,554.25544 C 1349.4423,554.25544 1368.4885,567.11868 1371.0281,590.08479"
         style="fill:#a30330;fill-rule:nonzero;stroke:none"
         id="path20840" />
      <path
         d="M 664.89796,653.46237 L 664.89796,667.76096 L 697.37071,667.76096 C 696.70273,688.29793 675.71855,705.08086 656.23601,705.08086 C 629.08521,705.08086 607.43305,680.12731 607.43305,653.7936 C 607.43305,625.63807 629.41649,602.83758 657.56099,602.83758 C 672.89194,602.83758 688.04624,611.0082 697.03948,623.31934 L 708.03115,612.83003 C 695.70898,597.31687 676.38653,588.53899 656.89847,588.53899 C 620.75448,588.53899 591.77638,618.12992 591.77638,654.29046 C 591.77638,689.12606 620.09202,719.43466 655.23123,719.43466 C 690.376,719.43466 714.70019,692.93534 714.70019,658.48618 L 714.70019,653.46237 L 664.89796,653.46237"
         style="fill:#a30330;fill-rule:nonzero;stroke:none"
         id="path20842" />
      <path
         d="M 736.99275,592.67951 C 731.32849,592.67951 726.6635,597.31687 726.6635,603.16881 C 726.6635,608.85513 731.32849,613.32689 736.99275,613.32689 C 742.65696,613.32689 747.31644,608.85513 747.31644,603.16881 C 747.31644,597.31687 742.65696,592.67951 736.99275,592.67951 z M 744.48431,638.8325 L 729.49011,638.8325 L 729.49011,716.72954 L 744.48431,716.72954 L 744.48431,638.8325"
         style="fill:#a30330;fill-rule:evenodd;stroke:none"
         id="path20844" />
      <path
         d="M 772.11542,638.8325 L 755.29382,638.8325 L 794.43552,719.43466 L 833.74292,638.8325 L 816.92692,638.8325 L 794.43552,687.46984 L 772.11542,638.8325"
         style="fill:#a30330;fill-rule:nonzero;stroke:none"
         id="path20846" />
      <path
         d="M 914.30092,638.8325 L 899.33982,638.8325 L 899.33982,651.80615 L 899.00862,651.80615 C 892.82542,642.47617 883.49542,636.45861 872.01242,636.45861 C 849.37202,636.45861 835.21142,655.94667 835.21142,677.31177 C 835.21142,699.61537 848.70402,719.43466 872.50922,719.43466 C 883.66102,719.43466 892.99102,713.4171 899.00862,704.58401 L 899.33982,704.58401 L 899.33982,716.72954 L 914.30092,716.72954 L 914.30092,638.8325 z M 874.88312,706.07457 C 859.03872,706.07457 850.20012,692.43845 850.20012,677.75342 C 850.20012,663.28921 859.37002,649.8187 874.88312,649.8187 C 891.00362,649.8187 900.16792,662.6267 900.16792,677.75342 C 900.16792,693.10096 891.16922,706.07457 874.88312,706.07457"
         style="fill:#a30330;fill-rule:evenodd;stroke:none"
         id="path20848" />
      <path
         d="M 934.12022,638.8325 L 934.12022,683.60535 C 934.12022,704.91525 944.11272,719.43466 967.13392,719.43466 C 990.10012,719.43466 1000.0925,704.91525 1000.0925,683.60535 L 1000.0925,638.8325 L 985.07622,638.8325 L 985.07622,681.94914 C 985.07622,694.4259 981.92942,705.4121 967.13392,705.4121 C 952.28332,705.4121 949.08132,694.4259 949.08132,681.94914 L 949.08132,638.8325 L 934.12022,638.8325"
         style="fill:#a30330;fill-rule:nonzero;stroke:none"
         id="path20850" />
      <path
         d="M 1079.2041,716.72954 L 1094.1652,716.72954 L 1094.1652,572.1977 L 1079.2041,572.1977 L 1079.2041,651.80615 L 1078.8728,651.80615 C 1072.6897,642.47617 1063.3597,636.45861 1051.711,636.45861 C 1029.1866,636.45861 1015.0536,655.94667 1015.0536,677.31177 C 1015.0536,699.61537 1028.3585,719.43466 1052.3735,719.43466 C 1063.3597,719.43466 1072.8553,713.4171 1078.8728,704.58401 L 1079.2041,704.58401 L 1079.2041,716.72954 z M 1054.6922,706.07457 C 1038.8478,706.07457 1030.0147,692.43845 1030.0147,677.75342 C 1030.0147,663.28921 1039.179,649.8187 1054.6922,649.8187 C 1070.8678,649.8187 1080.0322,662.6267 1080.0322,677.75342 C 1080.0322,693.10096 1071.0334,706.07457 1054.6922,706.07457"
         style="fill:#a30330;fill-rule:evenodd;stroke:none"
         id="path20852" />
      <path
         d="M 1184.4285,638.8325 L 1169.4122,638.8325 L 1169.4122,651.80615 L 1169.081,651.80615 C 1162.953,642.47617 1153.6231,636.45861 1142.14,636.45861 C 1119.4499,636.45861 1105.3169,655.94667 1105.3169,677.31177 C 1105.3169,699.61537 1118.7874,719.43466 1142.6368,719.43466 C 1153.7887,719.43466 1163.1187,713.4171 1169.081,704.58401 L 1169.4122,704.58401 L 1169.4122,716.72954 L 1184.4285,716.72954 L 1184.4285,638.8325 z M 1144.9555,706.07457 C 1129.1111,706.07457 1120.278,692.43845 1120.278,677.75342 C 1120.278,663.28921 1129.4424,649.8187 1144.9555,649.8187 C 1161.1312,649.8187 1170.2403,662.6267 1170.2403,677.75342 C 1170.2403,693.10096 1161.2416,706.07457 1144.9555,706.07457"
         style="fill:#a30330;fill-rule:evenodd;stroke:none"
         id="path20854" />
      <path
         d="M 1223.1838,638.8325 L 1208.2227,638.8325 L 1208.2227,716.72954 L 1223.1838,716.72954 L 1223.1838,680.95544 C 1223.1838,666.76721 1223.1838,649.8187 1242.5062,649.8187 C 1257.8538,649.8187 1259.6756,658.81741 1259.6756,672.1223 L 1259.6756,716.72954 L 1274.6919,716.72954 L 1274.6919,670.30047 C 1274.6919,651.3093 1269.0056,636.45861 1247.0332,636.45861 C 1237.5376,636.45861 1228.2077,640.98557 1223.515,649.32185 L 1223.1838,649.32185 L 1223.1838,638.8325"
         style="fill:#a30330;fill-rule:nonzero;stroke:none"
         id="path20856" />
    </g>
  </g>
</svg>
